<?xml version="1.0" encoding="utf-8"?>
<!-- Generator: Adobe Illustrator 19.2.1, SVG Export Plug-In . SVG Version: 6.00 Build 0)  -->
<svg version="1.1" xmlns="http://www.w3.org/2000/svg" xmlns:xlink="http://www.w3.org/1999/xlink" x="0px" y="0px"
	 viewBox="0 0 283.5 283.2" style="enable-background:new 0 0 283.5 283.2;" xml:space="preserve">
<style type="text/css">
	.st0{opacity:0.35;}
	.st1{fill:#74C8DA;}
	.st2{fill:#FFFFFF;}
	.st3{fill:#3E4444;}
	.st4{font-family:'HelveticaNeue';}
	.st5{font-size:45.9688px;}
</style>
<g id="branding_x5F_icon">
	<g>
		<g class="st0">
			<circle class="st1" cx="141.7" cy="141.7" r="141.4"/>
		</g>
		<g>
			<g>
				<g>
					<path class="st2" d="M102.5,194.8c-3.5,0-6.3-2.8-6.3-6.3s2.8-6.3,6.3-6.3h31.8c14.6-0.1,20.1-0.4,22.1-0.6
						c3.9-0.4,7.2-1.5,9.7-3.3c2.6-1.8,4.6-4.2,6.1-7.3c1.6-3.2,2.3-6.3,2.3-9.6c0-4-1.1-7.4-3.3-10.3c-2.2-2.9-5.5-5-9.9-6.3
						c-2.5-0.7-4.3-3-4.5-5.6c-0.2-2.6,1.3-5.1,3.7-6.2c2.9-1.3,5.2-3.3,6.9-5.9c1.7-2.6,2.5-5.5,2.5-8.6c0-2.9-0.7-5.5-2-7.7
						c-1.5-2.5-3.2-4.4-5.3-5.8c-2.1-1.5-4.5-2.4-7.3-2.9c-3.3-0.6-8.5-0.8-15.5-0.8h-23.6c-3.5,0-6.3-2.8-6.3-6.3s2.8-6.3,6.3-6.3
						h23.6c7.8,0,13.6,0.3,17.6,1c4.5,0.8,8.6,2.4,12.3,4.9c3.6,2.5,6.7,5.8,9.1,9.8c2.5,4.2,3.7,9,3.7,14.1
						c0,5.6-1.5,10.8-4.5,15.5c-0.8,1.3-1.8,2.5-2.8,3.6c2.3,1.7,4.3,3.6,6,5.8c3.9,5.1,5.9,11.1,5.9,17.9c0,5.2-1.2,10.3-3.6,15.2
						c-2.5,5-5.9,9-10.1,12c-4.3,3-9.5,4.9-15.6,5.5c-3.4,0.4-11.1,0.6-23.4,0.7H102.5z"/>
				</g>
			</g>
			<g>
				<path class="st2" d="M141.7,244.8c-56.8,0-103.1-46.2-103.1-103.1c0-3.5,2.8-6.3,6.3-6.3c3.5,0,6.3,2.8,6.3,6.3
					c0,49.9,40.6,90.4,90.4,90.4c49.9,0,90.4-40.6,90.4-90.4c0-49.9-40.6-90.4-90.4-90.4c-3.5,0-6.3-2.8-6.3-6.3
					c0-3.5,2.8-6.3,6.3-6.3c56.8,0,103.1,46.2,103.1,103.1C244.8,198.6,198.6,244.8,141.7,244.8z"/>
			</g>
		</g>
	</g>
</g>
<g id="branding_x5F_text">
	<text transform="matrix(1 0 0 1 50.6221 153.521)" class="st3 st4 st5">branding</text>
</g>
</svg>
