<?xml version="1.0" encoding="utf-8"?>
<!-- Generator: Adobe Illustrator 19.2.1, SVG Export Plug-In . SVG Version: 6.00 Build 0)  -->
<svg version="1.1" xmlns="http://www.w3.org/2000/svg" xmlns:xlink="http://www.w3.org/1999/xlink" x="0px" y="0px"
	 viewBox="0 0 283.5 283.2" style="enable-background:new 0 0 283.5 283.2;" xml:space="preserve">
<style type="text/css">
	.st0{opacity:0.35;}
	.st1{fill:#74C8DA;}
	.st2{fill:#FFFFFF;}
	.st3{display:none;}
	.st4{display:inline;fill:#3E4444;}
	.st5{font-family:'HelveticaNeue';}
	.st6{font-size:45.9688px;}
</style>
<g id="branding_x5F_icon">
	<g class="st0">
		<circle class="st1" cx="141.7" cy="141.7" r="141.4"/>
	</g>
	<g>
		<g>
			<path class="st2" d="M154.2,244.2h-25c-2.3,0-4.3-1.3-5.3-3.4l-47.9-106c-1.3-2.9,0-6.3,2.9-7.6c2.9-1.3,6.3,0,7.6,2.9L133,232.6
				h17.5l45.4-100.4l-33.5-81.5h-45.1c-3.2,0-5.8-2.6-5.8-5.8c0-3.2,2.6-5.8,5.8-5.8h48.9c2.3,0,4.5,1.4,5.3,3.6l35.9,87.4
				c0.6,1.5,0.6,3.1-0.1,4.6l-47.9,106C158.5,242.9,156.5,244.2,154.2,244.2z"/>
		</g>
		<g>
			<path class="st2" d="M141.7,244.2c-3.2,0-5.8-2.6-5.8-5.8v-96.7c0-3.2,2.6-5.8,5.8-5.8s5.8,2.6,5.8,5.8v96.7
				C147.5,241.6,144.9,244.2,141.7,244.2z"/>
		</g>
		<g>
			<path class="st2" d="M141.7,115c-12.1,0-22-9.9-22-22c0-12.1,9.9-22,22-22s22,9.9,22,22C163.7,105.1,153.9,115,141.7,115z
				 M141.7,82.5c-5.8,0-10.4,4.7-10.4,10.4c0,5.8,4.7,10.4,10.4,10.4s10.4-4.7,10.4-10.4C152.2,87.2,147.5,82.5,141.7,82.5z"/>
		</g>
	</g>
</g>
<g id="branding_x5F_text" class="st3">
	<text transform="matrix(1 0 0 1 15.3188 153.521)" class="st4 st5 st6">infographics</text>
</g>
</svg>
