<?xml version="1.0" encoding="utf-8"?>
<!-- Generator: Adobe Illustrator 19.2.1, SVG Export Plug-In . SVG Version: 6.00 Build 0)  -->
<svg version="1.1" xmlns="http://www.w3.org/2000/svg" xmlns:xlink="http://www.w3.org/1999/xlink" x="0px" y="0px"
	 viewBox="0 0 283.5 283.2" style="enable-background:new 0 0 283.5 283.2;" xml:space="preserve">
<style type="text/css">
	.st0{opacity:0.35;}
	.st1{fill:#74C8DA;}
	.st2{fill:#FFFFFF;}
	.st3{fill:#3E4444;}
	.st4{font-family:'HelveticaNeue';}
	.st5{font-size:45.9688px;}
</style>
<g id="branding_x5F_icon">
	<g>
		<g class="st0">
			<circle class="st1" cx="141.7" cy="141.7" r="141.3"/>
		</g>
		<g>
			<path class="st2" d="M141.7,240.2c-54.3,0-98.5-44.2-98.5-98.4c0-24.5,9.1-48.1,25.6-66.3c2.3-2.6,6.3-2.8,8.9-0.4
				c2.6,2.3,2.8,6.3,0.4,8.9c-14.4,15.9-22.3,36.4-22.3,57.8c0,47.3,38.5,85.8,85.9,85.8s85.9-38.5,85.9-85.8
				c0-45.2-35.1-82.4-79.6-85.6v18.7c34.1,3.2,60.9,32,60.9,66.9c0,37-30.1,67.2-67.2,67.2s-67.2-30.1-67.2-67.2
				c0-16.8,6.2-32.8,17.4-45.2c2.3-2.6,6.3-2.8,8.9-0.4c2.6,2.3,2.8,6.3,0.4,8.9c-9.1,10.1-14.2,23.1-14.2,36.7
				c0,30.1,24.5,54.5,54.6,54.5c30.1,0,54.6-24.5,54.6-54.5c0-30.1-24.5-54.6-54.6-54.6c-3.5,0-6.3-2.8-6.3-6.3V49.6
				c0-3.5,2.8-6.3,6.3-6.3c54.3,0,98.5,44.2,98.5,98.5C240.2,196,196,240.2,141.7,240.2z"/>
		</g>
	</g>
</g>
<g id="branding_x5F_text">
	<text transform="matrix(1 0 0 1 15.3188 153.521)" class="st3 st4 st5">infographics</text>
</g>
</svg>
