<?xml version="1.0" encoding="utf-8"?>
<!-- Generator: Adobe Illustrator 19.2.1, SVG Export Plug-In . SVG Version: 6.00 Build 0)  -->
<svg version="1.1" xmlns="http://www.w3.org/2000/svg" xmlns:xlink="http://www.w3.org/1999/xlink" x="0px" y="0px"
	 viewBox="0 0 283.5 283.2" style="enable-background:new 0 0 283.5 283.2;" xml:space="preserve">
<style type="text/css">
	.st0{opacity:0.35;}
	.st1{fill:#74C8DA;}
	.st2{fill:#FFFFFF;}
	.st3{fill:#3E4444;}
	.st4{font-family:'HelveticaNeue';}
	.st5{font-size:45.9688px;}
</style>
<g id="branding_x5F_icon">
	<g>
		<g class="st0">
			<circle class="st1" cx="141.7" cy="141.7" r="141.4"/>
		</g>
		<g>
			<path class="st2" d="M141.7,222.1c-43.8,0-79.4-35.6-79.4-79.3c0-19.8,7.3-38.8,20.6-53.4c2.3-2.6,6.3-2.8,8.9-0.4
				c2.6,2.3,2.8,6.3,0.4,8.9C81.1,110.1,75,126.1,75,142.7c0,36.8,29.9,66.7,66.7,66.7c36.8,0,66.7-29.9,66.7-66.7
				c0-36.8-29.9-66.7-66.7-66.7c-3.5,0-6.3-2.8-6.3-6.3s2.8-6.3,6.3-6.3c43.8,0,79.4,35.6,79.4,79.4
				C221.1,186.5,185.5,222.1,141.7,222.1z"/>
		</g>
		<g>
			<path class="st2" d="M141.7,259.9c-3.5,0-6.3-2.8-6.3-6.3V31.8c0-3.5,2.8-6.3,6.3-6.3c3.5,0,6.3,2.8,6.3,6.3v221.8
				C148,257.1,145.2,259.9,141.7,259.9z"/>
		</g>
		<g>
			<path class="st2" d="M245.3,149H38.1c-3.5,0-6.3-2.8-6.3-6.3s2.8-6.3,6.3-6.3h207.2c3.5,0,6.3,2.8,6.3,6.3S248.8,149,245.3,149z"
				/>
		</g>
	</g>
</g>
<g id="branding_x5F_text">
	<text transform="matrix(1 0 0 1 95.3262 153.521)" class="st3 st4 st5">print</text>
</g>
</svg>
