<?xml version="1.0" encoding="utf-8"?>
<!-- Generator: Adobe Illustrator 19.2.1, SVG Export Plug-In . SVG Version: 6.00 Build 0)  -->
<svg version="1.1" xmlns="http://www.w3.org/2000/svg" xmlns:xlink="http://www.w3.org/1999/xlink" x="0px" y="0px"
	 viewBox="0 0 283.5 283.2" style="enable-background:new 0 0 283.5 283.2;" xml:space="preserve">
<style type="text/css">
	.st0{opacity:0.35;}
	.st1{fill:#74C8DA;}
	.st2{fill:#FFFFFF;}
	.st3{display:none;}
	.st4{display:inline;fill:#3E4444;}
	.st5{font-family:'HelveticaNeue';}
	.st6{font-size:45.9688px;}
</style>
<g id="branding_x5F_icon">
	<g>
		<g class="st0">
			<circle class="st1" cx="141.7" cy="141.7" r="140.9"/>
		</g>
		<g>
			<path class="st2" d="M145.3,239.2c-3.5,0-6.3-2.8-6.3-6.3V103.6c0-3.5,2.8-6.3,6.3-6.3h76.9V79.6H62.1c-3.5,0-6.3-2.8-6.3-6.3
				s2.8-6.3,6.3-6.3h166.4c3.5,0,6.3,2.8,6.3,6.3v30.3c0,3.5-2.8,6.3-6.3,6.3h-76.9v123C151.6,236.4,148.8,239.2,145.3,239.2z"/>
		</g>
	</g>
</g>
<g id="branding_x5F_text" class="st3">
	<text transform="matrix(1 0 0 1 95.3262 153.521)" class="st4 st5 st6">print</text>
</g>
</svg>
