<?xml version="1.0" encoding="utf-8"?>
<!-- Generator: Adobe Illustrator 19.2.1, SVG Export Plug-In . SVG Version: 6.00 Build 0)  -->
<svg version="1.1" xmlns="http://www.w3.org/2000/svg" xmlns:xlink="http://www.w3.org/1999/xlink" x="0px" y="0px"
	 viewBox="0 0 283.5 283.2" style="enable-background:new 0 0 283.5 283.2;" xml:space="preserve">
<style type="text/css">
	.st0{opacity:0.35;}
	.st1{fill:#74C8DA;}
	.st2{fill:#FFFFFF;}
	.st3{display:none;}
	.st4{display:inline;fill:#3E4444;}
	.st5{font-family:'HelveticaNeue';}
	.st6{font-size:45.9688px;}
</style>
<g id="branding_x5F_icon">
	<g>
		<g class="st0">
			<circle class="st1" cx="141.7" cy="141.7" r="141.1"/>
		</g>
		<g>
			<g>
				<path class="st2" d="M127.2,224.6c-0.1,0-0.3,0-0.4,0c-2.4-0.2-4.4-1.6-5.4-3.8L55.6,67.7c-1-2.4-0.5-5.1,1.3-6.9
					c1.8-1.8,4.6-2.4,6.9-1.3L217,125.2c2.2,0.9,3.6,3,3.8,5.4c0.2,2.4-1,4.6-3.1,5.8l-38,22.7l46.8,46.8c2.5,2.5,2.5,6.4,0,8.9
					c-2.5,2.5-6.4,2.5-8.9,0l-52.5-52.5c-1.4-1.4-2-3.3-1.8-5.2c0.2-1.9,1.3-3.6,3-4.6l34.4-20.6L73.4,77.2l54.7,127.3l20.6-34.4
					c1.8-3,5.7-4,8.6-2.2c3,1.8,4,5.7,2.2,8.6l-26.9,45C131.5,223.4,129.4,224.6,127.2,224.6z"/>
			</g>
		</g>
	</g>
</g>
<g id="branding_x5F_text" class="st3">
	<text transform="matrix(1 0 0 1 25.0864 153.521)" class="st4 st5 st6">typography</text>
</g>
</svg>
